<?xml version="1.0" standalone="no"?>
<!DOCTYPE svg PUBLIC "-//W3C//DTD SVG 20010904//EN"
 "http://www.w3.org/TR/2001/REC-SVG-20010904/DTD/svg10.dtd">
<svg version="1.0" xmlns="http://www.w3.org/2000/svg"
 width="700.000000pt" height="700.000000pt" viewBox="0 0 700.000000 700.000000"
 preserveAspectRatio="xMidYMid meet">
<metadata>
Created by potrace 1.11, written by Peter Selinger 2001-2013
</metadata>
<g transform="translate(0.000000,700.000000) scale(0.100000,-0.100000)"
fill="#000000" stroke="none">
<path d="M6078 6865 c-2 -2 -21 -6 -43 -9 -22 -2 -166 -23 -320 -45 -154 -22
-302 -43 -330 -46 -27 -4 -57 -8 -65 -10 -8 -3 -31 -7 -50 -9 -19 -3 -57 -8
-85 -12 -27 -4 -59 -8 -70 -9 -23 -3 -99 -14 -135 -20 -14 -2 -45 -7 -70 -10
-25 -3 -70 -10 -100 -15 -30 -5 -77 -11 -105 -15 -27 -3 -75 -10 -105 -15 -30
-5 -75 -12 -100 -15 -72 -8 -110 -13 -138 -19 -15 -3 -47 -8 -72 -11 -25 -4
-56 -8 -70 -10 -14 -2 -50 -7 -80 -10 -30 -3 -62 -8 -70 -10 -8 -2 -35 -7 -60
-10 -75 -10 -167 -24 -201 -30 -8 -2 -42 -6 -75 -9 -32 -4 -66 -8 -74 -11 -8
-2 -37 -6 -65 -10 -27 -3 -63 -8 -80 -10 -16 -3 -120 -18 -230 -34 -266 -39
-286 -42 -315 -46 -14 -2 -41 -6 -60 -8 -19 -3 -57 -8 -85 -12 -27 -3 -72 -10
-100 -15 -27 -5 -75 -12 -105 -16 -30 -3 -64 -8 -74 -10 -19 -3 -135 -20 -208
-29 -19 -2 -78 -11 -129 -19 -52 -9 -114 -18 -138 -21 -25 -3 -171 -24 -325
-46 -285 -41 -379 -55 -451 -65 -44 -6 -290 -42 -345 -50 -19 -3 -48 -7 -63
-9 -39 -6 -107 -16 -142 -21 -16 -2 -43 -6 -60 -8 -42 -5 -256 -37 -280 -41
-11 -2 -30 -4 -41 -4 -19 -1 -23 -10 -33 -88 -6 -49 -13 -99 -15 -113 -3 -14
-9 -63 -15 -110 -12 -95 -19 -149 -26 -198 -15 -115 -25 -192 -30 -227 -7 -65
-17 -139 -21 -159 -2 -11 36 -91 85 -180 49 -89 105 -192 126 -231 21 -38 64
-117 95 -175 32 -58 72 -131 89 -162 71 -131 95 -175 121 -223 28 -51 105
-193 225 -415 37 -69 75 -138 85 -155 9 -16 37 -66 60 -110 24 -44 54 -100 68
-125 13 -25 40 -74 59 -110 20 -36 46 -83 58 -105 32 -57 77 -140 114 -210 18
-33 42 -78 55 -100 12 -22 41 -76 65 -120 24 -44 139 -255 256 -470 117 -214
230 -421 250 -460 21 -38 55 -101 76 -138 22 -38 39 -72 39 -77 0 -4 7 -13 15
-20 9 -7 13 -15 11 -17 -2 -3 10 -30 29 -61 18 -32 49 -88 70 -127 21 -38 91
-169 158 -290 66 -121 132 -242 147 -270 15 -27 69 -126 120 -220 51 -93 103
-188 115 -210 12 -22 46 -85 76 -140 29 -55 61 -113 70 -130 14 -26 22 -30 55
-29 22 1 52 4 68 7 16 4 50 9 75 13 25 4 55 8 66 10 18 4 424 71 470 78 11 2
98 16 193 32 l172 28 0 2698 0 2698 -172 0 c-94 0 -169 2 -167 4 2 2 27 7 54
10 28 4 66 9 85 12 67 9 95 13 135 19 52 8 80 12 135 20 25 3 56 8 70 10 14 2
45 7 70 10 77 11 168 24 200 30 8 2 44 6 80 10 36 4 67 8 70 10 3 2 34 6 70
10 36 4 68 9 71 11 4 2 28 6 55 8 27 3 67 8 89 11 22 4 51 8 65 10 14 2 54 9
90 14 36 5 85 13 110 16 25 3 56 8 70 10 47 7 115 17 145 21 17 2 46 6 65 9
19 3 49 7 65 10 17 2 47 6 68 9 60 10 104 16 248 36 210 30 212 31 239 35 14
3 45 7 70 10 25 3 54 8 65 10 11 2 31 4 45 4 17 1 55 29 121 94 367 350 449
431 449 437 0 3 -19 15 -42 25 -24 10 -86 38 -138 63 -93 43 -156 71 -235 107
-21 10 -87 40 -145 67 -112 53 -176 79 -182 73z m-3097 -1418 c2 -395 0 -3219
-2 -3222 -3 -2 -31 45 -63 103 -55 100 -308 563 -381 697 -18 33 -198 364
-400 735 -202 371 -383 704 -403 740 -19 36 -42 79 -52 95 -9 17 -39 71 -65
120 -27 50 -56 104 -65 120 -40 72 -80 146 -125 230 -26 50 -63 118 -82 153
-20 35 -33 65 -31 67 4 4 84 17 193 30 28 4 57 8 65 10 8 3 35 7 59 10 25 3
106 15 180 26 75 11 154 22 176 25 22 2 67 9 100 14 61 9 133 20 170 25 39 5
191 26 225 31 19 3 64 10 100 15 77 13 89 14 160 23 30 4 62 9 70 11 8 2 40 7
70 10 30 3 55 7 57 8 1 2 11 3 23 4 19 2 20 -4 21 -80z"/>
</g>
</svg>
